# xmcd
#
# Track frame offsets: 
#        150
#        11616
#        21332
#        32992
#        43547
#        56696
#        67816
#        78572
#        86624
#        94896
#        104472
#        115972
#        124861
#        135452
#        146555
#        155920
#        166627
#        182356
#        195135
#        207401
#
# Disc length: 2884 seconds
#
# Revision: 0
# Processed by: cddbd v1.5.2PL0 Copyright (c) Steve Scherf et al.
# Submitted via: ExactAudioCopyFreeDBPlugin 1.0
#
DISCID=0c0b4214
DTITLE=The Beatles - The Beatles Hits Parade20
DYEAR=2000
DGENRE=Pop
TTITLE0=Hold me tight
TTITLE1=I call your name
TTITLE2=I don't want to spoil the party
TTITLE3=I feel fine
TTITLE4=I saw her standing threr
TTITLE5=I want to hold your hand
TTITLE6=I'll be back
TTITLE7=I'll cry instead
TTITLE8=I'll follow the sun
TTITLE9=I'll get you
TTITLE10=I'm down
TTITLE11=I'm happy just to dance with you
TTITLE12=If i feel
TTITLE13=In my life
TTITLE14=Long tall sally
TTITLE15=Love me do
TTITLE16=Lucy in the sky with diamonds
TTITLE17=Magical mystery tour
TTITLE18=Michelle
TTITLE19=Misery
EXTD=
EXTT0=
EXTT1=
EXTT2=
EXTT3=
EXTT4=
EXTT5=
EXTT6=
EXTT7=
EXTT8=
EXTT9=
EXTT10=
EXTT11=
EXTT12=
EXTT13=
EXTT14=
EXTT15=
EXTT16=
EXTT17=
EXTT18=
EXTT19=
PLAYORDER=
